<?xml version="1.0" encoding="iso-8859-1"?>
<!-- Generator: Adobe Illustrator 16.0.0, SVG Export Plug-In . SVG Version: 6.00 Build 0)  -->
<!DOCTYPE svg PUBLIC "-//W3C//DTD SVG 1.1//EN" "http://www.w3.org/Graphics/SVG/1.1/DTD/svg11.dtd">
<svg version="1.1" xmlns="http://www.w3.org/2000/svg" xmlns:xlink="http://www.w3.org/1999/xlink" x="0px" y="0px" width="300px"
	 height="300px" viewBox="0 0 512 512" style="enable-background:new 0 0 512 512;" xml:space="preserve">
<g id="_x39_13-Business_x2C__Community_x2C__Team_x2C__Work">
	<g>
		<circle style="fill:#07CC66;" cx="438.461" cy="55.5" r="30"/>
		<path style="fill:#07CC66;" d="M58.461,45.5c11.05,0,20,8.95,20,20s-8.95,20-20,20s-20-8.95-20-20S47.411,45.5,58.461,45.5z"/>
		<path style="fill:#FFD400;" d="M139.57,465.5H96.24h-28.89v-25.56c0-25.771,20.89-46.66,46.67-46.66h3.88h3.891
			c25.779,0,46.67,20.89,46.67,46.66v25.56H139.57z"/>
		<path style="fill:#5CBEFF;" d="M376.241,465.5h-28.891v-25.56c0-25.771,20.891-46.66,46.67-46.66h3.881h3.89
			c25.78,0,46.67,20.89,46.67,46.66v25.56h-28.89H376.241z"/>
		<path style="fill:#D94556;" d="M168.461,485.5c0-11.444,0-43.011,0-54.11c0-35.159,28.5-63.67,63.67-63.67
			c16.09,0,34.979,0,51.55,0c35.16,0,63.67,28.511,63.67,63.67c0,15.646,0,45.525,0,54.11
			C309.699,485.5,205.917,485.5,168.461,485.5z"/>
		<path style="fill:#FFD5AB;" d="M397.901,335.5c15.96,0,28.89,12.93,28.89,28.89c0,15.95-12.93,28.891-28.89,28.891
			c-15.95,0-28.891-12.94-28.891-28.891C369.011,348.43,381.951,335.5,397.901,335.5z"/>
		<path style="fill:#FFD5AB;" d="M117.9,335.5c15.96,0,28.891,12.93,28.891,28.89c0,15.95-12.931,28.891-28.891,28.891
			c-15.949,0-28.88-12.94-28.88-28.891C89.021,348.43,101.951,335.5,117.9,335.5z"/>
		<path style="fill:#FFD5AB;" d="M257.911,265.5c28.22,0,51.109,22.88,51.109,51.11c0,28.229-22.89,51.109-51.109,51.109
			c-28.23,0-51.12-22.88-51.12-51.109C206.791,288.38,229.681,265.5,257.911,265.5z"/>
		<path style="fill:#94D4FF;" d="M458.461,165.5c5.52,0,10,4.48,10,10s-4.48,10-10,10s-10-4.48-10-10S452.941,165.5,458.461,165.5z"
			/>
		<path style="fill:#94D4FF;" d="M458.461,325.5c5.52,0,10,4.48,10,10s-4.48,10-10,10s-10-4.48-10-10S452.941,325.5,458.461,325.5z"
			/>
		<path style="fill:#94D4FF;" d="M338.461,325.5c5.52,0,10,4.48,10,10s-4.48,10-10,10s-10-4.48-10-10S332.941,325.5,338.461,325.5z"
			/>
		<path style="fill:#94D4FF;" d="M268.461,185.5c5.52,0,10,4.48,10,10s-4.48,10-10,10s-10-4.48-10-10S262.941,185.5,268.461,185.5z"
			/>
		<path style="fill:#94D4FF;" d="M208.461,215.5c5.52,0,10,4.48,10,10s-4.48,10-10,10c-5.521,0-10-4.48-10-10
			S202.94,215.5,208.461,215.5z"/>
		<path style="fill:#94D4FF;" d="M48.461,165.5c5.52,0,10,4.48,10,10s-4.48,10-10,10c-5.521,0-10-4.48-10-10
			S42.94,165.5,48.461,165.5z"/>
		<path style="fill:#94D4FF;" d="M48.461,315.5c5.52,0,10,4.48,10,10s-4.48,10-10,10c-5.521,0-10-4.48-10-10
			S42.94,315.5,48.461,315.5z"/>
		<path style="fill:#94D4FF;" d="M28.461,445.5c5.52,0,10,4.48,10,10s-4.48,10-10,10c-5.521,0-10-4.48-10-10
			S22.94,445.5,28.461,445.5z"/>
		<path style="fill:#3256C1;" d="M103.522,303.522c-4.029,0-7.825-2.452-9.346-6.441c-3.298-8.652-5.896-17.588-7.75-26.65
			L34.9,262.72c-4.896-0.732-8.52-4.938-8.52-9.89v-30.45c0-4.947,3.617-9.151,8.51-9.888l51.536-7.766
			c1.363-6.66,3.129-13.256,5.278-19.724l-40.766-32.481c-3.876-3.088-4.905-8.549-2.42-12.836l15.26-26.32
			c2.479-4.275,7.706-6.101,12.307-4.292l48.535,19.061c4.506-5.073,9.318-9.886,14.393-14.392l-19.062-48.545
			c-1.806-4.6,0.019-9.83,4.295-12.307l26.32-15.25c4.288-2.486,9.747-1.454,12.834,2.421l32.479,40.763
			c6.454-2.147,13.051-3.912,19.729-5.277l7.774-51.537c0.737-4.892,4.941-8.508,9.888-8.508h30.44c4.95,0,9.156,3.622,9.89,8.518
			l7.721,51.528c6.675,1.365,13.269,3.129,19.721,5.275l32.478-40.763c3.086-3.873,8.538-4.903,12.826-2.426l26.38,15.25
			c4.285,2.477,6.113,7.716,4.3,12.321l-19.104,48.521c5.083,4.495,9.912,9.313,14.438,14.407l48.535-19.061
			c4.602-1.807,9.84,0.021,12.315,4.307l15.199,26.32c2.476,4.286,1.443,9.738-2.428,12.822l-40.742,32.462
			c2.172,6.472,3.939,13.075,5.285,19.747l51.506,7.761c4.892,0.737,8.51,4.941,8.51,9.888v30.45c0,4.951-3.623,9.157-8.52,9.89
			l-51.496,7.707c-1.833,9.087-4.445,18.04-7.798,26.702c-1.993,5.15-7.784,7.71-12.936,5.717c-5.15-1.993-7.71-7.784-5.717-12.936
			c3.728-9.631,6.413-19.67,7.983-29.837c0.668-4.326,4.073-7.715,8.402-8.363l50.08-7.495v-13.229l-50.09-7.548
			c-4.325-0.651-7.725-4.038-8.393-8.361c-1.569-10.158-4.256-20.198-7.984-29.841c-1.576-4.076-0.322-8.704,3.096-11.427
			l39.615-31.564l-6.59-11.411l-47.169,18.524c-4.053,1.59-8.665,0.379-11.411-2.996c-6.544-8.04-13.915-15.393-21.91-21.854
			c-3.396-2.745-4.618-7.377-3.019-11.441l18.575-47.178l-11.468-6.629l-31.562,39.613c-2.713,3.405-7.316,4.667-11.388,3.111
			c-9.636-3.678-19.707-6.373-29.933-8.008c-4.303-0.688-7.665-4.083-8.311-8.393L255.098,35.5h-13.223l-7.556,50.092
			c-0.649,4.305-4.01,7.695-8.31,8.383c-10.226,1.635-20.296,4.329-29.933,8.008c-4.067,1.553-8.674,0.295-11.388-3.111
			l-31.557-39.606l-11.423,6.619l18.529,47.191c1.59,4.05,0.379,8.664-2.996,11.411c-8.004,6.514-15.364,13.874-21.877,21.876
			c-2.747,3.376-7.361,4.587-11.411,2.996l-47.183-18.529l-6.624,11.425l39.604,31.555c3.403,2.711,4.663,7.313,3.114,11.379
			c-3.688,9.685-6.383,19.759-8.011,29.941c-0.688,4.3-4.079,7.66-8.385,8.309l-50.09,7.548v13.229l50.08,7.495
			c4.311,0.645,7.707,4.008,8.395,8.313c1.628,10.19,4.323,20.263,8.01,29.936c1.967,5.161-0.622,10.938-5.783,12.906
			C105.91,303.311,104.706,303.522,103.522,303.522z"/>
		<path style="fill:#5CBEFF;" d="M348.461,245.5c-5.522,0-10-4.477-10-10c0-49.626-40.374-90-90-90s-90,40.374-90,90
			c0,5.523-4.478,10-10,10c-5.523,0-10-4.477-10-10c0-60.654,49.346-110,110-110s110,49.346,110,110
			C358.461,241.023,353.983,245.5,348.461,245.5z"/>
	</g>
</g>
<g id="Layer_1">
</g>
</svg>
