<?xml version="1.0" encoding="UTF-8" standalone="no"?> <svg xmlns="http://www.w3.org/2000/svg" viewBox="0 0 512 512"><g id="flat"><path d="M244,158v66h56V128H274A30,30,0,0,0,244,158Z" style="fill:#fed759"/><rect x="56" y="128" width="300px" height="208" style="fill:#f6646c"/><path d="M80,128v96H24V158a30,30,0,0,1,30-30Z" style="fill:#f6646c"/><path d="M496,224V408a8,8,0,0,1-8,8H448a8,8,0,0,1-8-8V392l-6.35,4.23a6.794,6.794,0,0,1-9.42-1.88L420,388l20-12V224Z" style="fill:#ffb3d0"/><rect x="280" y="336" width="184" height="152" style="fill:#0e3e86"/><rect x="56" y="336" width="184" height="152" style="fill:#0e3e86"/><rect x="280" y="128" width="184" height="208" style="fill:#fed759"/><path d="M360,80v58a14,14,0,0,0,14,14h0a14,14,0,0,0,14-14V80Z" style="fill:#ffb3d0"/><path d="M300,224a4,4,0,0,1-4-4V184a4,4,0,0,1,8,0v36A4,4,0,0,1,300,224Z" style="fill:#ffbc2b"/><rect x="160" y="192" width="192" height="224" style="fill:#5f86fe"/><rect x="160" y="416" width="192" height="72" style="fill:#1b53a6"/><path d="M128,80v58a14,14,0,0,0,14,14h0a14,14,0,0,0,14-14V80Z" style="fill:#ffb3d0"/><path d="M496,158v66H440V128h26A30,30,0,0,1,496,158Z" style="fill:#fed759"/><path d="M100,388l-4.23,6.35a6.794,6.794,0,0,1-9.42,1.88L80,392v16a8,8,0,0,1-8,8H32a8,8,0,0,1-8-8V224H80V376Z" style="fill:#ffb3d0"/><path d="M332,176H180v-1.753a35.225,35.225,0,0,1,11.176-25.739h0A15.208,15.208,0,0,0,196,137.4h0a15.207,15.207,0,0,1,8.405-13.6l.662-.331a14.792,14.792,0,0,0,8.029-11.139h0A42.309,42.309,0,0,1,233.765,81.7h0A42.313,42.313,0,0,1,254.981,76h5.594a42.6,42.6,0,0,1,27.275,9.875h0A42.6,42.6,0,0,1,302.6,111.6l.339,2.035a14.894,14.894,0,0,0,6.429,9.943h0A14.893,14.893,0,0,1,316,135.97v1.564a14.893,14.893,0,0,0,4.725,10.881h0A35.542,35.542,0,0,1,332,174.382Z" style="fill:#1b53a6"/><rect x="240" y="144" width="28" height="72" style="fill:#ffb3d0"/><path d="M288,192a32,32,0,0,1-64,0Z" style="fill:#ffb3d0"/><path d="M184,192v96H128V222a30,30,0,0,1,30-30Z" style="fill:#5f86fe"/><path d="M328,326.43v20.46L191.96,397.06a46.794,46.794,0,0,1-8.09,2.2A47.517,47.517,0,0,1,128,352.48V288h56v55.48Z" style="fill:#ffb3d0"/><path d="M384,222v66H328V192h26A30,30,0,0,1,384,222Z" style="fill:#5f86fe"/><path d="M384,288v72a40,40,0,0,1-40,40H176v-5.38L328,344V288Z" style="fill:#ffb3d0"/><path d="M184,288a4,4,0,0,1-4-4V248a4,4,0,0,1,8,0v36A4,4,0,0,1,184,288Z" style="fill:#3a69ff"/><path d="M328,288a4,4,0,0,1-4-4V248a4,4,0,0,1,8,0v36A4,4,0,0,1,328,288Z" style="fill:#3a69ff"/><path d="M464,224a4,4,0,0,1-4-4V184a4,4,0,0,1,8,0v36A4,4,0,0,1,464,224Z" style="fill:#ffbc2b"/><path d="M80,224a4,4,0,0,1-4-4V184a4,4,0,0,1,8,0v36A4,4,0,0,1,80,224Z" style="fill:#f2444e"/><path d="M252,160h16a0,0,0,0,1,0,0v24a0,0,0,0,1,0,0h0a16,16,0,0,1-16-16v-8A0,0,0,0,1,252,160Z" style="fill:#e67199"/><path d="M284,112v44a20,20,0,0,1-20,20h0a24,24,0,0,1-24-24V112Z" style="fill:#ffb3d0"/><path d="M288,128h-5.484a23.488,23.488,0,0,1-21.008-12.984h0l-2.027,6.18A33.132,33.132,0,0,1,228,144h0V96h60Z" style="fill:#1b53a6"/><circle cx="240" cy="143" r="12" style="fill:#ffb3d0"/><path d="M140,96h16a0,0,0,0,1,0,0v24a0,0,0,0,1,0,0h0a16,16,0,0,1-16-16V96A0,0,0,0,1,140,96Z" style="fill:#e67199"/><path d="M372,96h16a0,0,0,0,1,0,0v24a0,0,0,0,1,0,0h0a16,16,0,0,1-16-16V96A0,0,0,0,1,372,96Z" style="fill:#e67199"/><path d="M404,48V94a18,18,0,0,1-18,18h0a26,26,0,0,1-26-26V48Z" style="fill:#ffb3d0"/><path d="M424,32V45.543a14.887,14.887,0,0,1-18.039,14.549l-25.715-5.57h0A25.478,25.478,0,0,1,354.768,80H348V53.032A29.032,29.032,0,0,1,377.032,24h0a29.031,29.031,0,0,1,13.177,3.163l9.5,4.837Z" style="fill:#1b53a6"/><circle cx="360" cy="80" r="12" style="fill:#ffb3d0"/><path d="M172,48V94a18,18,0,0,1-18,18h0a26,26,0,0,1-26-26V48Z" style="fill:#ffb3d0"/><path d="M192,41.859h0a17.858,17.858,0,0,1-21.639,17.453l-22.115-4.79h0A25.478,25.478,0,0,1,122.768,80H116V44a20,20,0,0,1,20-20h38.141A17.859,17.859,0,0,1,192,41.859Z" style="fill:#1b53a6"/><circle cx="128" cy="80" r="12" style="fill:#ffb3d0"/><path d="M176,398.621a4,4,0,0,1-1.263-7.8L324,341.116V330.542a4,4,0,1,1,8,0V344a4,4,0,0,1-2.736,3.8l-152,50.62A3.988,3.988,0,0,1,176,398.621Z" style="fill:#ff9ac0"/></g></svg>
